<svg width="500" height="250" viewBox="0 0 500 250" fill="none" xmlns="http://www.w3.org/2000/svg">
<g clip-path="url(#clip0_2001_22)">
<rect width="500" height="250" fill="#1C9AEA"/>
<path d="M189.189 107.466C187.762 85.1263 169.134 67.39 146.441 67.39C128.344 67.39 112.074 79.0062 106.091 95.9078C88.957 96.139 75.09 110.148 75.09 127.335C75.09 144.666 89.189 158.765 106.52 158.765H186.363C200.549 158.765 212.09 147.224 212.09 133.038C212.09 119.808 202.051 108.877 189.189 107.466ZM186.363 152.935H106.52C92.4043 152.935 80.9197 141.452 80.9197 127.335C80.9197 113.219 92.4043 101.735 106.52 101.735C106.905 101.735 107.342 101.735 107.544 101.78C109.05 102.113 110.541 101.225 110.971 99.7535C115.551 84.1307 130.136 73.2198 146.441 73.2198C166.846 73.2198 183.448 89.8211 183.448 110.226C183.448 111.836 184.753 113.141 186.363 113.141C197.335 113.141 206.26 122.067 206.26 133.038C206.26 144.01 197.335 152.935 186.363 152.935Z" fill="white"/>
<path d="M142.714 164.397H395.44C411.062 164.397 423.764 151.695 423.764 136.073C423.764 120.451 411.062 107.749 395.44 107.749H142.714C127.019 107.749 114.317 120.451 114.317 136.073C114.317 151.695 127.019 164.397 142.714 164.397Z" fill="#1C9AEA"/>
<path d="M130.82 139.91V138.78C130.82 137.787 130.943 136.853 131.19 135.98C131.443 135.1 131.867 134.337 132.46 133.69C133.06 133.043 133.87 132.53 134.89 132.15C135.91 131.77 137.193 131.58 138.74 131.58H139.52C140.513 131.58 141.477 131.643 142.41 131.77C143.343 131.89 144.263 132.067 145.17 132.3V135.87C144.657 135.723 144.14 135.6 143.62 135.5C143.107 135.393 142.597 135.307 142.09 135.24C141.59 135.18 141.11 135.133 140.65 135.1C140.19 135.073 139.777 135.06 139.41 135.06C138.277 135.06 137.4 135.167 136.78 135.38C136.16 135.587 135.707 135.88 135.42 136.26C135.14 136.64 134.973 137.093 134.92 137.62C134.873 138.14 134.85 138.713 134.85 139.34C134.85 139.967 134.873 140.543 134.92 141.07C134.973 141.597 135.14 142.053 135.42 142.44C135.707 142.827 136.16 143.123 136.78 143.33C137.4 143.543 138.277 143.65 139.41 143.65C139.777 143.65 140.19 143.637 140.65 143.61C141.11 143.577 141.59 143.53 142.09 143.47C142.597 143.403 143.107 143.313 143.62 143.2C144.14 143.093 144.657 142.967 145.17 142.82V146.41C144.263 146.623 143.343 146.793 142.41 146.92C141.477 147.047 140.513 147.11 139.52 147.11H138.74C137.193 147.11 135.91 146.92 134.89 146.54C133.87 146.16 133.06 145.647 132.46 145C131.867 144.347 131.443 143.583 131.19 142.71C130.943 141.837 130.82 140.903 130.82 139.91Z" fill="white"/>
<path d="M150.39 132.02H154.33V137.7H156.84L161.61 132.02H165.46V132.89L160.06 139.34L165.46 145.79V146.67H161.61L157.02 141.2H154.33V146.67H150.39V132.02Z" fill="white"/>
<path d="M172.91 146.67H169.37V145.79L175.89 132.02H179.82L186.34 145.79V146.67H182.79L181.53 143.83H174.16L172.91 146.67ZM175.62 140.55H180.08L177.85 135.54L175.62 140.55Z" fill="white"/>
<path d="M195.06 141.42L202.74 132.02H206.67V146.67H202.74V137.27L195.06 146.67H191.12V132.02H195.06V141.42ZM200.2 127.54H202.17V128.02C202.17 128.353 202.12 128.673 202.02 128.98C201.927 129.287 201.76 129.557 201.52 129.79C201.28 130.023 200.953 130.207 200.54 130.34C200.12 130.467 199.597 130.53 198.97 130.53H198.8C198.173 130.53 197.653 130.467 197.24 130.34C196.82 130.207 196.49 130.023 196.25 129.79C196.01 129.557 195.843 129.287 195.75 128.98C195.657 128.673 195.61 128.353 195.61 128.02V127.54H197.58V128.02C197.58 128.22 197.663 128.397 197.83 128.55C197.997 128.703 198.32 128.78 198.8 128.78H198.97C199.457 128.78 199.783 128.703 199.95 128.55C200.117 128.397 200.2 128.22 200.2 128.02V127.54Z" fill="white"/>
<path d="M220.84 139.91V138.78C220.84 137.787 220.963 136.853 221.21 135.98C221.457 135.1 221.88 134.337 222.48 133.69C223.08 133.043 223.89 132.53 224.91 132.15C225.93 131.77 227.21 131.58 228.75 131.58H229.54C230.533 131.58 231.497 131.643 232.43 131.77C233.363 131.89 234.28 132.067 235.18 132.3V135.87C234.673 135.723 234.16 135.6 233.64 135.5C233.12 135.393 232.61 135.307 232.11 135.24C231.61 135.18 231.13 135.133 230.67 135.1C230.21 135.073 229.797 135.06 229.43 135.06C228.297 135.06 227.42 135.167 226.8 135.38C226.18 135.587 225.727 135.88 225.44 136.26C225.16 136.64 224.993 137.093 224.94 137.62C224.887 138.14 224.86 138.713 224.86 139.34C224.86 139.967 224.887 140.543 224.94 141.07C224.993 141.597 225.16 142.053 225.44 142.44C225.727 142.827 226.18 143.123 226.8 143.33C227.42 143.543 228.297 143.65 229.43 143.65C229.797 143.65 230.21 143.637 230.67 143.61C231.13 143.577 231.61 143.53 232.11 143.47C232.61 143.403 233.12 143.313 233.64 143.2C234.16 143.093 234.673 142.967 235.18 142.82V146.41C234.28 146.623 233.363 146.793 232.43 146.92C231.497 147.047 230.533 147.11 229.54 147.11H228.75C227.21 147.11 225.93 146.92 224.91 146.54C223.89 146.16 223.08 145.647 222.48 145C221.88 144.347 221.457 143.583 221.21 142.71C220.963 141.837 220.84 140.903 220.84 139.91Z" fill="white"/>
<path d="M254.42 132.02V135.52H244.34V137.7H252.24V141.2H244.34V143.17H254.42V146.67H240.41V132.02H254.42Z" fill="white"/>
<path d="M259.85 132.02H263.78V137.7H266.3L271.06 132.02H274.91V132.89L269.51 139.34L274.91 145.79V146.67H271.06L266.47 141.2H263.78V146.67H259.85V132.02Z" fill="white"/>
<path d="M294.79 141.64V142.51C294.79 143.157 294.693 143.757 294.5 144.31C294.313 144.863 293.98 145.347 293.5 145.76C293.013 146.173 292.37 146.503 291.57 146.75C290.77 146.99 289.757 147.11 288.53 147.11H287.92C286.593 147.11 285.24 147.073 283.86 147C282.487 146.927 281.173 146.817 279.92 146.67V132.02H283.85V137.27C284.563 137.15 285.297 137.083 286.05 137.07C286.803 137.057 287.573 137.05 288.36 137.05H288.97C290.11 137.05 291.053 137.17 291.8 137.41C292.553 137.65 293.147 137.977 293.58 138.39C294.02 138.81 294.33 139.3 294.51 139.86C294.697 140.42 294.79 141.013 294.79 141.64ZM287.75 140.55C287.063 140.55 286.413 140.56 285.8 140.58C285.187 140.6 284.537 140.653 283.85 140.74V143.41C284.583 143.483 285.323 143.533 286.07 143.56C286.823 143.593 287.433 143.61 287.9 143.61C288.747 143.61 289.4 143.573 289.86 143.5C290.313 143.427 290.647 143.32 290.86 143.18C291.073 143.04 291.197 142.877 291.23 142.69C291.27 142.497 291.29 142.293 291.29 142.08C291.29 141.86 291.27 141.653 291.23 141.46C291.197 141.273 291.07 141.113 290.85 140.98C290.63 140.853 290.28 140.75 289.8 140.67C289.32 140.59 288.637 140.55 287.75 140.55Z" fill="white"/>
<path d="M300.23 132.02H304.17V137.7H307.05C307.123 136.84 307.31 136.037 307.61 135.29C307.91 134.537 308.353 133.887 308.94 133.34C309.533 132.793 310.3 132.363 311.24 132.05C312.18 131.737 313.333 131.58 314.7 131.58H315.49C316.99 131.58 318.237 131.77 319.23 132.15C320.223 132.53 321.01 133.043 321.59 133.69C322.177 134.337 322.59 135.1 322.83 135.98C323.07 136.853 323.19 137.787 323.19 138.78V139.91C323.19 140.903 323.07 141.837 322.83 142.71C322.59 143.583 322.177 144.347 321.59 145C321.01 145.647 320.223 146.16 319.23 146.54C318.237 146.92 316.99 147.11 315.49 147.11H314.7C313.36 147.11 312.227 146.96 311.3 146.66C310.38 146.36 309.62 145.943 309.02 145.41C308.42 144.877 307.967 144.25 307.66 143.53C307.36 142.81 307.163 142.033 307.07 141.2H304.17V146.67H300.23V132.02ZM310.94 139.34C310.94 139.893 310.963 140.43 311.01 140.95C311.057 141.47 311.21 141.927 311.47 142.32C311.73 142.713 312.14 143.027 312.7 143.26C313.267 143.493 314.067 143.61 315.1 143.61C316.133 143.61 316.93 143.493 317.49 143.26C318.05 143.027 318.463 142.713 318.73 142.32C318.99 141.927 319.143 141.47 319.19 140.95C319.23 140.43 319.25 139.893 319.25 139.34C319.25 138.787 319.23 138.257 319.19 137.75C319.143 137.237 318.99 136.783 318.73 136.39C318.463 135.997 318.05 135.683 317.49 135.45C316.93 135.217 316.133 135.1 315.1 135.1C314.067 135.1 313.267 135.217 312.7 135.45C312.14 135.683 311.73 135.997 311.47 136.39C311.21 136.783 311.057 137.237 311.01 137.75C310.963 138.257 310.94 138.787 310.94 139.34Z" fill="white"/>
<path d="M343.72 136.83V137.7C343.72 138.433 343.63 139.117 343.45 139.75C343.263 140.383 342.953 140.937 342.52 141.41C342.08 141.883 341.483 142.26 340.73 142.54C339.983 142.813 339.04 142.95 337.9 142.95H337.29C336.503 142.95 335.733 142.943 334.98 142.93C334.233 142.917 333.503 142.85 332.79 142.73V146.67H328.85V132.02C330.103 131.873 331.42 131.763 332.8 131.69C334.173 131.617 335.523 131.58 336.85 131.58H337.47C338.69 131.58 339.703 131.72 340.51 132C341.31 132.273 341.95 132.647 342.43 133.12C342.91 133.593 343.247 134.153 343.44 134.8C343.627 135.44 343.72 136.117 343.72 136.83ZM336.68 139.45C337.453 139.45 338.05 139.397 338.47 139.29C338.897 139.183 339.207 139.03 339.4 138.83C339.6 138.63 339.713 138.4 339.74 138.14C339.767 137.88 339.78 137.59 339.78 137.27C339.78 136.95 339.767 136.653 339.74 136.38C339.713 136.113 339.603 135.883 339.41 135.69C339.223 135.503 338.933 135.353 338.54 135.24C338.147 135.133 337.577 135.08 336.83 135.08C336.363 135.08 335.757 135.093 335.01 135.12C334.257 135.153 333.517 135.207 332.79 135.28V139.26C333.47 139.347 334.117 139.4 334.73 139.42C335.343 139.44 335.993 139.45 336.68 139.45Z" fill="white"/>
<path d="M353.1 141.42L360.77 132.02H364.71V146.67H360.77V137.27L353.1 146.67H349.16V132.02H353.1V141.42Z" fill="white"/>
<path d="M379.12 146.67H375.18V135.52H369.5V132.02H384.83V135.52H379.12V146.67Z" fill="white"/>
<path d="M393.55 141.42L401.22 132.02H405.16V146.67H401.22V137.27L393.55 146.67H389.61V132.02H393.55V141.42Z" fill="white"/>
</g>
<defs>
<clipPath id="clip0_2001_22">
<rect width="500" height="250" fill="white"/>
</clipPath>
</defs>
</svg>
