<?xml version="1.0" encoding="UTF-8" standalone="no" ?>
<!DOCTYPE svg PUBLIC "-//W3C//DTD SVG 1.1//EN" "http://www.w3.org/Graphics/SVG/1.1/DTD/svg11.dtd">
<svg xmlns="http://www.w3.org/2000/svg" xmlns:xlink="http://www.w3.org/1999/xlink" version="1.1" width="500" height="500" viewBox="0 0 500 500" xml:space="preserve">
<desc>Created with Fabric.js 3.6.3</desc>
<defs>
</defs>
<g transform="matrix(1.4421052631578948 0 0 1.4421052631578948 143.59000000000003 227.0775565468421)"  >
<path style="stroke: none; stroke-width: 0; stroke-dasharray: none; stroke-linecap: butt; stroke-dashoffset: 0; stroke-linejoin: miter; stroke-miterlimit: 4; fill: rgb(255,255,255); fill-rule: nonzero; opacity: 1;"  transform=" translate(-50, -50.00000005)" d="M 81.6199341 46.1084595 c -0.9898682 -15.4907227 -13.9071045 -27.7896118 -29.6430664 -27.7896118 c -12.5490723 0 -23.8309326 8.0549927 -27.9801025 19.7750854 C 12.1158447 38.2542725 2.5 47.9688721 2.5 59.8867798 c 0 12.0176392 9.7767334 21.7943726 21.7948608 21.7943726 h 55.3649902 C 89.4968262 81.6811523 97.5 73.6784668 97.5 63.8414917 C 97.5 54.6668091 90.5390015 47.0875244 81.6199341 46.1084595 z M 79.6598511 77.6386108 H 24.2948608 c -9.7885742 0 -17.7523193 -7.9632568 -17.7523193 -17.7518311 s 7.9637451 -17.7523193 17.7523193 -17.7523193 c 0.2664795 0 0.569458 0 0.7095947 0.0311279 c 1.0441895 0.230957 2.0785522 -0.3843994 2.3765869 -1.4049072 c 3.1760254 -10.833313 13.2893066 -18.399292 24.5958252 -18.399292 c 14.1499023 0 25.6617432 11.5118408 25.6617432 25.6612549 c 0 1.1162109 0.9050293 2.0213013 2.0212402 2.0213013 c 7.6083984 0 13.7976074 6.1896362 13.7976074 13.7975464 S 87.2682495 77.6386108 79.6598511 77.6386108 z" stroke-linecap="round" />
</g>
<g transform="matrix(0.73 0 0 0.7299999999999999 269.04000354372346 250.07324623293195)"  >
<path style="stroke: none; stroke-width: 1; stroke-dasharray: none; stroke-linecap: butt; stroke-dashoffset: 0; stroke-linejoin: miter; stroke-miterlimit: 4; fill: rgb(28,154,234); fill-rule: nonzero; opacity: 1;"  transform=" translate(-249.95000000000002, -250)" d="M 76.9 288.8 h 346.2 c 21.4 0 38.8 -17.4 38.8 -38.8 v 0 c 0 -21.4 -17.4 -38.8 -38.8 -38.8 H 76.9 C 55.4 211.2 38 228.6 38 250 v 0 C 38 271.4 55.4 288.8 76.9 288.8 z" stroke-linecap="round" />
</g>
<g transform="matrix(1 0 0 1 288.1 253.80010897235186)" style=""  ><path fill="#ffffff" opacity="1" d="M-157.28 0.11L-157.28-1.02Q-157.28-2.51-156.91-3.82Q-156.53-5.14-155.64-6.11Q-154.74-7.08-153.21-7.65Q-151.68-8.22-149.36-8.22L-149.36-8.22L-148.58-8.22Q-147.09-8.22-145.69-8.03Q-144.29-7.85-142.93-7.50L-142.93-7.50L-142.93-3.93Q-143.70-4.15-144.48-4.30Q-145.25-4.46-146.01-4.56Q-146.76-4.65-147.45-4.70Q-148.14-4.74-148.69-4.74L-148.69-4.74Q-150.39-4.74-151.32-4.42Q-152.25-4.11-152.68-3.54Q-153.10-2.97-153.18-2.18Q-153.25-1.40-153.25-0.46L-153.25-0.46Q-153.25 0.48-153.18 1.27Q-153.10 2.06-152.68 2.64Q-152.25 3.22-151.32 3.53Q-150.39 3.85-148.69 3.85L-148.69 3.85Q-148.14 3.85-147.45 3.81Q-146.76 3.76-146.01 3.67Q-145.25 3.57-144.48 3.40Q-143.70 3.24-142.93 3.02L-142.93 3.02L-142.93 6.61Q-144.29 6.93-145.69 7.12Q-147.09 7.31-148.58 7.31L-148.58 7.31L-149.36 7.31Q-151.68 7.31-153.21 6.74Q-154.74 6.17-155.64 5.20Q-156.53 4.22-156.91 2.91Q-157.28 1.60-157.28 0.11L-157.28 0.11Z"/><path fill="#ffffff" opacity="1" d="M-137.71-7.78L-133.77-7.78L-133.77-2.10L-131.26-2.10L-126.49-7.78L-122.64-7.78L-122.64-6.91L-128.04-0.46L-122.64 5.99L-122.64 6.87L-126.49 6.87L-131.08 1.40L-133.77 1.40L-133.77 6.87L-137.71 6.87L-137.71-7.78Z"/><path fill="#ffffff" opacity="1" d="M-115.19 6.87L-118.73 6.87L-118.73 5.99L-112.21-7.78L-108.28-7.78L-101.76 5.99L-101.76 6.87L-105.31 6.87L-106.57 4.03L-113.94 4.03L-115.19 6.87ZM-112.48 0.75L-108.02 0.75L-110.25-4.26L-112.48 0.75Z"/><path fill="#ffffff" opacity="1" d="M-93.04 1.62L-85.36-7.78L-81.43-7.78L-81.43 6.87L-85.36 6.87L-85.36-2.53L-93.04 6.87L-96.98 6.87L-96.98-7.78L-93.04-7.78L-93.04 1.62ZM-87.90-12.26L-85.93-12.26L-85.93-11.78Q-85.93-11.28-86.08-10.82Q-86.22-10.36-86.58-10.01Q-86.94-9.66-87.56-9.46Q-88.19-9.27-89.13-9.27L-89.13-9.27L-89.30-9.27Q-90.24-9.27-90.86-9.46Q-91.49-9.66-91.85-10.01Q-92.21-10.36-92.35-10.82Q-92.49-11.28-92.49-11.78L-92.49-11.78L-92.49-12.26L-90.52-12.26L-90.52-11.78Q-90.52-11.48-90.27-11.25Q-90.02-11.02-89.30-11.02L-89.30-11.02L-89.13-11.02Q-88.40-11.02-88.15-11.25Q-87.90-11.48-87.90-11.78L-87.90-11.78L-87.90-12.26Z"/><path fill="#ffffff" opacity="1" d=""/><path fill="#ffffff" opacity="1" d="M-67.26 0.11L-67.26-1.02Q-67.26-2.51-66.89-3.82Q-66.52-5.14-65.62-6.11Q-64.72-7.08-63.19-7.65Q-61.66-8.22-59.35-8.22L-59.35-8.22L-58.56-8.22Q-57.07-8.22-55.67-8.03Q-54.27-7.85-52.92-7.50L-52.92-7.50L-52.92-3.93Q-53.68-4.15-54.46-4.30Q-55.24-4.46-55.99-4.56Q-56.74-4.65-57.43-4.70Q-58.12-4.74-58.67-4.74L-58.67-4.74Q-60.37-4.74-61.30-4.42Q-62.23-4.11-62.66-3.54Q-63.08-2.97-63.16-2.18Q-63.24-1.40-63.24-0.46L-63.24-0.46Q-63.24 0.48-63.16 1.27Q-63.08 2.06-62.66 2.64Q-62.23 3.22-61.30 3.53Q-60.37 3.85-58.67 3.85L-58.67 3.85Q-58.12 3.85-57.43 3.81Q-56.74 3.76-55.99 3.67Q-55.24 3.57-54.46 3.40Q-53.68 3.24-52.92 3.02L-52.92 3.02L-52.92 6.61Q-54.27 6.93-55.67 7.12Q-57.07 7.31-58.56 7.31L-58.56 7.31L-59.35 7.31Q-61.66 7.31-63.19 6.74Q-64.72 6.17-65.62 5.20Q-66.52 4.22-66.89 2.91Q-67.26 1.60-67.26 0.11L-67.26 0.11Z"/><path fill="#ffffff" opacity="1" d="M-33.68-7.78L-33.68-4.28L-43.76-4.28L-43.76-2.10L-35.86-2.10L-35.86 1.40L-43.76 1.40L-43.76 3.37L-33.68 3.37L-33.68 6.87L-47.69 6.87L-47.69-7.78L-33.68-7.78Z"/><path fill="#ffffff" opacity="1" d="M-28.25-7.78L-24.32-7.78L-24.32-2.10L-21.80-2.10L-17.04-7.78L-13.19-7.78L-13.19-6.91L-18.59-0.46L-13.19 5.99L-13.19 6.87L-17.04 6.87L-21.63 1.40L-24.32 1.40L-24.32 6.87L-28.25 6.87L-28.25-7.78Z"/><path fill="#ffffff" opacity="1" d="M6.69 1.84L6.69 2.71Q6.69 3.68 6.40 4.51Q6.12 5.34 5.40 5.96Q4.67 6.58 3.47 6.95Q2.27 7.31 0.43 7.31L0.43 7.31L-0.18 7.31Q-2.17 7.31-4.24 7.20Q-6.30 7.09-8.18 6.87L-8.18 6.87L-8.18-7.78L-4.25-7.78L-4.25-2.53Q-3.18-2.71-2.05-2.73Q-0.92-2.75 0.26-2.75L0.26-2.75L0.87-2.75Q2.58-2.75 3.70-2.39Q4.83-2.03 5.48-1.41Q6.14-0.78 6.41 0.06Q6.69 0.90 6.69 1.84L6.69 1.84ZM-0.35 0.75L-0.35 0.75Q-1.38 0.75-2.30 0.78Q-3.22 0.81-4.25 0.94L-4.25 0.94L-4.25 3.61Q-3.15 3.72-2.03 3.76Q-0.90 3.81-0.20 3.81L-0.20 3.81Q1.07 3.81 1.76 3.70Q2.44 3.59 2.76 3.38Q3.08 3.17 3.13 2.89Q3.19 2.60 3.19 2.28L3.19 2.28Q3.19 1.95 3.13 1.66Q3.08 1.38 2.75 1.18Q2.42 0.99 1.70 0.87Q0.98 0.75-0.35 0.75Z"/><path fill="#ffffff" opacity="1" d="M12.13-7.78L16.07-7.78L16.07-2.10L18.95-2.10Q19.06-3.39 19.51-4.51Q19.96-5.64 20.84-6.46Q21.73-7.28 23.14-7.75Q24.55-8.22 26.60-8.22L26.60-8.22L27.39-8.22Q29.64-8.22 31.13-7.65Q32.62-7.08 33.49-6.11Q34.37-5.14 34.73-3.82Q35.09-2.51 35.09-1.02L35.09-1.02L35.09 0.11Q35.09 1.60 34.73 2.91Q34.37 4.22 33.49 5.20Q32.62 6.17 31.13 6.74Q29.64 7.31 27.39 7.31L27.39 7.31L26.60 7.31Q24.59 7.31 23.20 6.86Q21.82 6.41 20.92 5.61Q20.02 4.81 19.56 3.73Q19.11 2.65 18.97 1.40L18.97 1.40L16.07 1.40L16.07 6.87L12.13 6.87L12.13-7.78ZM22.84-0.46L22.84-0.46Q22.84 0.37 22.91 1.15Q22.98 1.93 23.37 2.52Q23.76 3.11 24.60 3.46Q25.45 3.81 27.00 3.81L27.00 3.81Q28.55 3.81 29.39 3.46Q30.23 3.11 30.63 2.52Q31.02 1.93 31.09 1.15Q31.15 0.37 31.15-0.46L31.15-0.46Q31.15-1.29 31.09-2.05Q31.02-2.82 30.63-3.41Q30.23-4.00 29.39-4.35Q28.55-4.70 27.00-4.70L27.00-4.70Q25.45-4.70 24.60-4.35Q23.76-4.00 23.37-3.41Q22.98-2.82 22.91-2.05Q22.84-1.29 22.84-0.46Z"/><path fill="#ffffff" opacity="1" d="M55.62-2.97L55.62-2.10Q55.62-1.00 55.35-0.05Q55.07 0.90 54.42 1.61Q53.76 2.32 52.63 2.74Q51.51 3.15 49.80 3.15L49.80 3.15L49.19 3.15Q48.01 3.15 46.88 3.13Q45.76 3.11 44.69 2.93L44.69 2.93L44.69 6.87L40.75 6.87L40.75-7.78Q42.63-8.00 44.70-8.11Q46.76-8.22 48.75-8.22L48.75-8.22L49.37-8.22Q51.20-8.22 52.41-7.80Q53.61-7.39 54.33-6.68Q55.05-5.97 55.34-5.00Q55.62-4.04 55.62-2.97L55.62-2.97ZM48.58-0.35L48.58-0.35Q49.74-0.35 50.37-0.51Q51.01-0.67 51.30-0.97Q51.60-1.27 51.64-1.66Q51.68-2.05 51.68-2.53L51.68-2.53Q51.68-3.01 51.64-3.42Q51.60-3.82 51.31-4.11Q51.03-4.39 50.44-4.56Q49.85-4.72 48.73-4.72L48.73-4.72Q48.03-4.72 46.91-4.68Q45.78-4.63 44.69-4.52L44.69-4.52L44.69-0.54Q45.71-0.41 46.63-0.38Q47.55-0.35 48.58-0.35Z"/><path fill="#ffffff" opacity="1" d="M65.00 1.62L72.67-7.78L76.61-7.78L76.61 6.87L72.67 6.87L72.67-2.53L65.00 6.87L61.06 6.87L61.06-7.78L65.00-7.78L65.00 1.62Z"/><path fill="#ffffff" opacity="1" d="M91.02 6.87L87.08 6.87L87.08-4.28L81.40-4.28L81.40-7.78L96.73-7.78L96.73-4.28L91.02-4.28L91.02 6.87Z"/><path fill="#ffffff" opacity="1" d="M105.45 1.62L113.12-7.78L117.06-7.78L117.06 6.87L113.12 6.87L113.12-2.53L105.45 6.87L101.51 6.87L101.51-7.78L105.45-7.78L105.45 1.62Z"/></g></svg>